<?xml version="1.0" encoding="UTF-8"?>
<svg id="Layer_1" data-name="Layer 1" xmlns="http://www.w3.org/2000/svg" viewBox="0 0 612 508.09">
  <defs>
    <style>
      .cls-1 {
        fill: #d3272a;
      }
    </style>
  </defs>
  <polygon class="cls-1" points="108.93 400.11 259.91 400.11 250.67 425.91 108.93 425.91 108.93 400.11"/>
  <path class="cls-1" d="m511.43,425.91h-140.2l-9.24-25.81h149.44v25.81"/>
  <path class="cls-1" d="m108.93,351.57h168.32l-9.24,25.81H108.93v-25.81Z"/>
  <polygon class="cls-1" points="344.65 351.57 511.43 351.57 511.43 377.38 353.89 377.38 344.65 351.57"/>
  <polygon class="cls-1" points="294.58 303.04 285.33 328.85 159 328.85 159 303.04 294.58 303.04"/>
  <polygon class="cls-1" points="336.56 328.85 327.32 303.04 461.74 303.04 461.74 328.85 336.56 328.85"/>
  <path class="cls-1" d="m387.02,275.31v-19.64h74.72v25.81h-142.13l-8.86-23.88-8.47,23.88h-143.28v-25.81h74.34v19.64l6.93-19.64h140.2l6.55,19.64Z"/>
  <rect class="cls-1" x="159" y="207.14" width="74.34" height="25.81"/>
  <path class="cls-1" d="m387.02,232.94h74.72v-25.81h-74.72v25.81"/>
  <path class="cls-1" d="m248.36,232.94c.39,0,8.86-25.81,9.24-25.81h105.53l9.24,25.81h-124.02Z"/>
  <rect class="cls-1" x="159" y="158.61" width="74.34" height="25.81"/>
  <rect class="cls-1" x="387.02" y="158.61" width="74.72" height="25.81"/>
  <path class="cls-1" d="m274.55,158.61l-9.24,25.81h89.74l-9.24-25.81h-71.26"/>
  <rect class="cls-1" x="108.93" y="111.23" width="124.41" height="25.81"/>
  <rect class="cls-1" x="387.02" y="111.23" width="124.41" height="25.81"/>
  <polygon class="cls-1" points="291.5 111.23 329.24 111.23 338.49 137.04 282.64 137.04 291.5 111.23"/>
  <polygon class="cls-1" points="308.44 62.7 311.91 62.7 320.77 88.51 299.59 88.51 308.44 62.7"/>
  <rect class="cls-1" x="108.93" y="62.7" width="124.41" height="25.81"/>
  <rect class="cls-1" x="387.02" y="62.7" width="124.41" height="25.81"/>
</svg>